<svg width="51" height="51" viewBox="0 0 51 51" fill="none" xmlns="http://www.w3.org/2000/svg">
<g clip-path="url(#clip0_50_527)">
<path fill-rule="evenodd" clip-rule="evenodd" d="M0 51H51V0H0V51Z" fill="#DD0000"/>
<path fill-rule="evenodd" clip-rule="evenodd" d="M17.3526 40.4448V35.7567H15.5988L14.1294 39.4194L12.7299 35.7567H10.9734V40.4448H12.1146V36.9222L13.506 40.4448H14.7372L16.2045 36.9222V40.4448H17.3526Z" fill="white"/>
<path fill-rule="evenodd" clip-rule="evenodd" d="M22.631 40.4448V39.6105H21.1211C20.1185 39.6105 19.5611 39.4248 19.4681 38.5254H22.631V37.6962H19.4681C19.5032 37.4295 19.5185 37.1535 19.7219 36.9375C19.8323 36.8166 19.9577 36.7365 20.126 36.6759C20.3723 36.6006 20.8199 36.5958 21.071 36.5958H22.631V35.7567H20.6087C20.1689 35.7567 19.6964 35.7867 19.3172 35.9823C18.4556 36.4299 18.1112 37.2492 18.1112 38.0631C18.1112 38.8968 18.4556 39.9672 19.5032 40.2837C19.9655 40.4244 20.5835 40.4448 21.071 40.4448H22.631Z" fill="white"/>
<path fill-rule="evenodd" clip-rule="evenodd" d="M28.8285 39.0626C28.8285 38.575 28.6226 38.0477 28.0622 37.8214C27.6584 37.6559 27.2385 37.6457 26.8016 37.6457H25.8996C25.4472 37.6457 24.8747 37.6205 24.8747 37.1132C24.8747 36.5354 25.4873 36.5957 25.9997 36.5957H28.5123V35.7566H25.7309C25.1684 35.7566 24.543 35.7416 24.0935 36.068C23.7464 36.3191 23.5434 36.7616 23.5434 37.1431C23.5434 37.6358 23.8574 38.1631 24.4323 38.3495C24.7463 38.4497 25.1609 38.4749 25.4873 38.4749H26.5223C26.7839 38.4749 27.1025 38.4902 27.297 38.6606C27.4223 38.7661 27.4974 38.912 27.4974 39.068C27.4974 39.6005 26.8521 39.6103 26.3798 39.6103H23.8145V40.4447H26.6411C27.3221 40.4447 27.9872 40.4801 28.4621 39.9971C28.7132 39.7358 28.8285 39.3895 28.8285 39.0626Z" fill="white"/>
<path fill-rule="evenodd" clip-rule="evenodd" d="M34.7783 39.0626C34.7783 38.575 34.5669 38.0477 34.0094 37.8214C33.6074 37.6559 33.1848 37.6457 32.7477 37.6457H31.8482C31.3913 37.6457 30.8187 37.6205 30.8187 37.1132C30.8187 36.5354 31.4363 36.5957 31.949 36.5957H34.4564V35.7566H31.6772C31.1147 35.7566 30.4923 35.7416 30.0398 36.068C29.6928 36.3191 29.4873 36.7616 29.4873 37.1431C29.4873 37.6358 29.8035 38.1631 30.3813 38.3495C30.6929 38.4497 31.1048 38.4749 31.4363 38.4749H32.4669C32.7278 38.4749 33.0498 38.4902 33.24 38.6606C33.3711 38.7661 33.4464 38.912 33.4464 39.068C33.4464 39.6005 32.7984 39.6103 32.3258 39.6103H29.7588V40.4447H32.5872C33.2652 40.4447 33.9338 40.4801 34.406 39.9971C34.6575 39.7358 34.7783 39.3895 34.7783 39.0626Z" fill="white"/>
<path fill-rule="evenodd" clip-rule="evenodd" d="M40.0234 40.4448V39.6105H38.5111C37.5115 39.6105 36.9537 39.4248 36.8583 38.5254H40.0234V37.6962H36.8583C36.8935 37.4295 36.9085 37.1535 37.1142 36.9375C37.225 36.8166 37.3503 36.7365 37.5162 36.6759C37.7622 36.6006 38.2098 36.5958 38.4609 36.5958H40.0234V35.7567H37.999C37.5613 35.7567 37.089 35.7867 36.7075 35.9823C35.848 36.4299 35.5012 37.2492 35.5012 38.0631C35.5012 38.8968 35.848 39.9672 36.8935 40.2837C37.3558 40.4244 37.9737 40.4448 38.4609 40.4448H40.0234Z" fill="white"/>
<path fill-rule="evenodd" clip-rule="evenodd" d="M7.1599 34.7566V30.0685H5.96919V31.9828H3.79329V30.0685H2.59479V34.7566H3.79329V32.8171H5.96919V34.7566H7.1599Z" fill="white"/>
<path fill-rule="evenodd" clip-rule="evenodd" d="M11.5793 32.837H9.9761L10.7774 31.1888L11.5793 32.837ZM13.7975 34.7565L11.4686 30.0684H10.0946L7.76511 34.7565H9.16463L9.70495 33.6663H11.8481L12.3881 34.7565H13.7975Z" fill="white"/>
<path fill-rule="evenodd" clip-rule="evenodd" d="M19.3122 34.7566V30.0685H18.1743V33.5608L15.9379 30.0685H14.4033V34.7566H15.5511V31.3195L17.8375 34.7566H19.3122Z" fill="white"/>
<path fill-rule="evenodd" clip-rule="evenodd" d="M25.367 34.7566V30.0685H24.2288V33.5608L21.9929 30.0685H20.4578V34.7566H21.6059V31.3195L23.8922 34.7566H25.367Z" fill="white"/>
<path fill-rule="evenodd" clip-rule="evenodd" d="M30.4462 32.3952C30.4462 33.249 30.2002 33.9978 29.0041 33.9978C27.8041 33.9978 27.5425 33.2694 27.5425 32.4C27.5425 31.5258 27.8041 30.8271 28.9999 30.8271C30.175 30.8271 30.4462 31.5357 30.4462 32.3952ZM31.7629 32.4702C31.7629 30.8976 30.9337 30.0387 28.99 30.0387C27.0673 30.0387 26.2111 30.8625 26.2111 32.4351C26.2111 33.1182 26.422 33.8922 27.118 34.3248C27.643 34.6563 28.4323 34.7817 29.0749 34.7817C30.8839 34.7817 31.7629 33.9525 31.7629 32.4702Z" fill="white"/>
<path fill-rule="evenodd" clip-rule="evenodd" d="M37.8334 30.0685H36.4861L34.8026 33.5958L33.1499 30.0685H31.8035L34.1753 34.7566H35.3711L37.8334 30.0685Z" fill="white"/>
<path fill-rule="evenodd" clip-rule="evenodd" d="M42.305 34.7566V33.9175H40.7927C39.7925 33.9175 39.2348 33.7366 39.1391 32.8371H42.305V32.008H39.1391C39.1745 31.7367 39.1898 31.4652 39.3962 31.2493C39.506 31.129 39.6323 31.0435 39.7979 30.9877C40.0439 30.9076 40.4909 30.9028 40.7423 30.9028H42.305V30.0685H40.28C39.8429 30.0685 39.371 30.0937 38.9885 30.2893C38.1293 30.7417 37.7828 31.5556 37.7828 32.3701C37.7828 33.2092 38.1293 34.279 39.1745 34.5907C39.6365 34.7314 40.2548 34.7566 40.7423 34.7566H42.305Z" fill="white"/>
<path fill-rule="evenodd" clip-rule="evenodd" d="M47.0787 31.4958C47.0787 31.9932 46.7574 32.1388 46.2092 32.1388H44.5311V30.9028H46.2092C46.7066 30.9028 47.0787 31.0084 47.0787 31.4958ZM48.4802 34.7566C48.4298 34.626 48.3947 34.5106 48.3746 34.3747C48.3347 34.0528 48.3498 33.7165 48.1988 33.4048C47.9979 32.9983 47.8121 32.8822 47.3247 32.737C48.0885 32.536 48.3947 32.0179 48.3947 31.3753C48.3947 30.8122 47.9979 30.3247 47.3396 30.1693C46.9427 30.0784 46.4961 30.0685 46.0838 30.0685H43.3349V34.7566H44.5311V32.9775H45.491C46.5311 32.9775 46.9022 33.214 47.0129 34.0888C47.043 34.3096 47.0534 34.5358 47.1383 34.7566H48.4802Z" fill="white"/>
<path fill-rule="evenodd" clip-rule="evenodd" d="M30.8034 13.6179C29.0345 13.6179 27.5297 12.9019 26.1155 12.9019C25.0853 12.9019 24.3371 13.6735 24.3371 14.5828C24.3371 14.9796 24.2694 15.2083 23.729 15.2083H21.5498C21.6785 14.1289 21.9845 13.2949 22.7493 12.5979C23.5809 11.8468 24.6261 11.4975 25.641 11.4975C27.9372 11.4975 29.7378 13.0702 31.6925 13.0702V11.9725C30.0093 11.9725 28.1307 10.4224 25.641 10.4224C24.2919 10.4224 23.0153 10.8619 21.9702 11.8093C20.7839 12.8833 20.4912 14.167 20.3826 15.2083H19.3575V16.326H20.2962C20.2136 17.4978 20.126 18.6703 20.0385 19.8411H21.3072V20.7732C21.8423 20.9116 22.7945 21.1198 22.7945 21.733C22.7945 22.3005 21.8396 22.5268 21.3072 22.6272V25.5766C21.9452 25.7449 22.3496 25.8426 23.2593 25.8426C23.5857 25.8426 24 25.7953 24.2664 25.7425V27.3549H25.4297V24.2905C24.9702 24.5494 24.111 24.7249 23.3397 24.7249C23.081 24.7249 22.6461 24.6975 22.4703 24.6546V23.3934C23.3448 23.1073 23.9801 22.5769 23.9801 21.733C23.9801 20.7582 23.2469 20.2681 22.4703 20.0043V18.723H21.2871C21.3356 18.0768 21.4034 17.1019 21.4587 16.326H25.598C25.598 16.326 25.3671 15.4491 25.3671 15.1428C25.3671 14.5954 25.7411 14.3617 26.5172 14.3617C27.0353 14.3617 27.3923 14.457 28.5371 14.457C29.8232 14.457 30.9137 14.2761 31.8285 13.8139V13.53C31.4565 13.5955 31.1597 13.6179 30.8034 13.6179Z" fill="white"/>
</g>
<defs>
<clipPath id="clip0_50_527">
<rect width="51" height="51" fill="white"/>
</clipPath>
</defs>
</svg>
