<svg width="25" height="25" viewBox="0 0 25 25" fill="none" xmlns="http://www.w3.org/2000/svg">
<path d="M12.5 16.927C9.77081 16.927 7.55206 14.7083 7.55206 11.9791V6.24992C7.55206 3.52075 9.77081 1.302 12.5 1.302C15.2291 1.302 17.4479 3.52075 17.4479 6.24992V11.9791C17.4479 14.7083 15.2291 16.927 12.5 16.927ZM12.5 2.8645C10.6354 2.8645 9.11456 4.38534 9.11456 6.24992V11.9791C9.11456 13.8437 10.6354 15.3645 12.5 15.3645C14.3646 15.3645 15.8854 13.8437 15.8854 11.9791V6.24992C15.8854 4.38534 14.3646 2.8645 12.5 2.8645Z" fill="#667085"/>
<path d="M12.5 20.5728C7.67708 20.5728 3.75 16.6458 3.75 11.8228V10.052C3.75 9.62492 4.10417 9.27075 4.53125 9.27075C4.95833 9.27075 5.3125 9.62492 5.3125 10.052V11.8228C5.3125 15.7812 8.54167 19.0103 12.5 19.0103C16.4583 19.0103 19.6875 15.7812 19.6875 11.8228V10.052C19.6875 9.62492 20.0417 9.27075 20.4688 9.27075C20.8958 9.27075 21.25 9.62492 21.25 10.052V11.8228C21.25 16.6458 17.3229 20.5728 12.5 20.5728Z" fill="#667085"/>
<path d="M13.9479 7.47917C13.8646 7.47917 13.7708 7.46875 13.6771 7.4375C12.9167 7.15625 12.0833 7.15625 11.3229 7.4375C10.9167 7.58333 10.4688 7.375 10.3229 6.96875C10.1771 6.5625 10.3854 6.11458 10.7917 5.96875C11.8958 5.57292 13.1146 5.57292 14.2188 5.96875C14.625 6.11458 14.8333 6.5625 14.6875 6.96875C14.5625 7.28125 14.2604 7.47917 13.9479 7.47917Z" fill="#667085"/>
<path d="M13.3333 9.6875C13.2604 9.6875 13.1979 9.67708 13.125 9.65625C12.7083 9.54167 12.2812 9.54167 11.8646 9.65625C11.4479 9.77083 11.0208 9.52083 10.9062 9.10417C10.7917 8.69792 11.0417 8.27083 11.4583 8.15625C12.1354 7.96875 12.8646 7.96875 13.5417 8.15625C13.9583 8.27083 14.2083 8.69792 14.0937 9.11458C14 9.45833 13.6771 9.6875 13.3333 9.6875Z" fill="#667085"/>
<path d="M12.5 23.698C12.0729 23.698 11.7188 23.3438 11.7188 22.9167V19.7917C11.7188 19.3647 12.0729 19.0105 12.5 19.0105C12.9271 19.0105 13.2812 19.3647 13.2812 19.7917V22.9167C13.2812 23.3438 12.9271 23.698 12.5 23.698Z" fill="#667085"/>
</svg>
