<svg width="19" height="19" viewBox="0 0 19 19" fill="none" xmlns="http://www.w3.org/2000/svg">
<g clip-path="url(#clip0_214_127)">
<path d="M18.2083 3.16675V7.91675H13.4583" stroke="#667085" stroke-width="2" stroke-linecap="round" stroke-linejoin="round"/>
<path d="M16.2212 11.8749C15.7066 13.3315 14.7325 14.5814 13.4458 15.4362C12.159 16.2911 10.6293 16.7045 9.08707 16.6143C7.54487 16.5241 6.07378 15.9351 4.89546 14.936C3.71714 13.937 2.89545 12.5821 2.55419 11.0754C2.21294 9.56872 2.37061 7.99195 3.00346 6.58269C3.63631 5.17343 4.71004 4.00803 6.06285 3.2621C7.41566 2.51617 8.97426 2.23013 10.5038 2.44708C12.0333 2.66404 13.4509 3.37222 14.5429 4.46493L18.2083 7.9166" stroke="#667085" stroke-width="2" stroke-linecap="round" stroke-linejoin="round"/>
</g>
<defs>
<clipPath id="clip0_214_127">
<rect width="19" height="19" fill="white"/>
</clipPath>
</defs>
</svg>
